<svg width="149" height="32" viewBox="0 0 149 32" fill="none" xmlns="http://www.w3.org/2000/svg">
  <g clipPath="url(#clip0_5821_3674)">
    <path d="M54.6613 10.48V17.072L49.52 10.48H47.808V21.3547H50.24V14.848L55.3066 21.3547H57.1093V10.48H54.6613Z" fill="white"/>
    <path d="M68.0747 10.48H65.6427V21.3547H68.0747V10.48Z" fill="white"/>
    <path d="M86.0213 10.48L82.208 16.4373L78.384 10.48H76.6293V21.3547H79.0453V15.3333L81.4027 19.0133H83.0027L85.36 15.3333V21.3547H87.776V10.48H86.0213Z" fill="white"/>
    <path d="M103.904 16.224C103.632 15.936 103.307 15.7013 102.949 15.536C103.2 15.4027 103.429 15.232 103.627 15.0293C104.059 14.5707 104.272 14 104.272 13.312C104.272 12.816 104.144 12.3253 103.893 11.8933C103.627 11.4507 103.243 11.088 102.779 10.8587C102.288 10.6027 101.691 10.4747 100.992 10.4747H96.3093V21.3493H100.96C101.728 21.3493 102.389 21.2107 102.939 20.928C103.456 20.672 103.893 20.2827 104.203 19.7973C104.496 19.3173 104.651 18.7573 104.64 18.1973C104.64 17.4187 104.395 16.7627 103.899 16.224M100.528 12.3733C100.869 12.3573 101.211 12.464 101.483 12.672C101.728 12.8693 101.851 13.168 101.851 13.5573C101.851 13.968 101.728 14.272 101.483 14.464C101.205 14.6667 100.869 14.7733 100.528 14.7573H98.7093V12.368H100.528V12.3733ZM101.824 19.0507C101.557 19.3227 101.189 19.4613 100.731 19.4613H98.7147V16.6133H100.731C101.008 16.608 101.28 16.6667 101.525 16.8C101.744 16.9173 101.92 17.0933 102.043 17.3067C102.165 17.5253 102.229 17.776 102.229 18.032C102.24 18.416 102.096 18.784 101.829 19.056" fill="white"/>
    <path d="M117.061 21.52C116.155 21.52 115.365 21.328 114.683 20.944C114.011 20.5707 113.456 20.0213 113.083 19.3547C112.688 18.656 112.491 17.8667 112.507 17.0667V10.4747H114.939V17.1893C114.928 17.5893 115.024 17.984 115.221 18.3307C115.403 18.64 115.664 18.8907 115.984 19.056C116.32 19.2267 116.688 19.3067 117.061 19.3013C117.429 19.3067 117.792 19.2213 118.117 19.056C118.427 18.8907 118.683 18.64 118.848 18.3307C119.029 17.984 119.12 17.6 119.109 17.2053V10.4747H121.557V17.0827C121.573 17.8773 121.376 18.6667 120.987 19.3653C120.613 20.0267 120.064 20.5707 119.403 20.944C118.688 21.3387 117.877 21.536 117.061 21.52Z" fill="white"/>
    <path d="M133.093 21.52C132.192 21.52 131.419 21.376 130.773 21.088C130.101 20.7787 129.504 20.3253 129.024 19.7653L130.597 18.192C130.923 18.576 131.317 18.8907 131.76 19.1253C132.219 19.3547 132.731 19.4667 133.248 19.456C133.749 19.456 134.144 19.36 134.427 19.168C134.699 19.0027 134.859 18.704 134.848 18.3893C134.859 18.128 134.763 17.872 134.581 17.68C134.368 17.4773 134.123 17.312 133.851 17.2053C133.541 17.072 133.211 16.944 132.848 16.8267C132.48 16.704 132.117 16.5653 131.76 16.4053C131.403 16.2453 131.067 16.0427 130.757 15.8027C130.448 15.5573 130.197 15.248 130.027 14.896C129.84 14.528 129.749 14.0693 129.749 13.5253C129.749 12.848 129.909 12.2667 130.235 11.7867C130.571 11.296 131.045 10.912 131.6 10.688C132.229 10.4267 132.907 10.2987 133.589 10.3093C134.309 10.2987 135.019 10.4373 135.685 10.7093C136.277 10.9493 136.805 11.3173 137.237 11.7867L135.653 13.376C135.365 13.0667 135.029 12.816 134.661 12.6187C134.315 12.4533 133.931 12.368 133.547 12.3733C133.125 12.3733 132.789 12.4533 132.544 12.6133C132.304 12.7573 132.165 13.0187 132.176 13.3013C132.165 13.552 132.272 13.792 132.453 13.9573C132.672 14.144 132.917 14.2933 133.184 14.3947C133.488 14.5173 133.819 14.64 134.187 14.7627C134.555 14.8853 134.917 15.0293 135.28 15.184C135.643 15.344 135.973 15.552 136.272 15.808C136.576 16.0747 136.827 16.4 137.003 16.7627C137.195 17.1413 137.285 17.6213 137.285 18.1973C137.285 19.2373 136.917 20.048 136.176 20.64C135.435 21.232 134.411 21.5253 133.093 21.5253" fill="white"/>
    <path d="M19.7173 0.256012C11.2106 0.256012 4.31464 7.15201 4.31464 15.6587C4.31464 24.1653 11.2106 31.0613 19.7173 31.0613C28.224 31.0613 35.12 24.1653 35.12 15.6587C35.12 7.15201 28.224 0.256012 19.7173 0.256012Z" fill="#E63439"/>
    <path d="M32.4906 15.6587C32.4906 22.7147 26.768 28.4373 19.712 28.4373C12.656 28.4373 6.93329 22.7147 6.93329 15.6587C6.93329 8.60267 12.656 2.88 19.712 2.88C26.768 2.88 32.4906 8.60267 32.4906 15.6587Z" fill="#C13751"/>
    <path d="M29.8666 15.6587C29.8666 21.264 25.3226 25.8133 19.712 25.8133C14.1066 25.8133 9.55731 21.2693 9.55731 15.6587C9.55731 10.0533 14.1013 5.504 19.712 5.504C25.3173 5.504 29.8666 10.048 29.8666 15.6587Z" fill="#953965"/>
    <path d="M27.2426 15.6587C27.2426 19.8187 23.8719 23.1894 19.7119 23.1894C15.5519 23.1894 12.1813 19.8187 12.1813 15.6587C12.1813 11.4987 15.5519 8.12802 19.7119 8.12802C23.8719 8.12802 27.2426 11.4987 27.2426 15.6587Z" fill="#633976"/>
    <mask id="mask0_5821_3674" style="mask-type:luminance" maskUnits="userSpaceOnUse" x="14" y="10" width="11" height="11">
      <path d="M24.6187 10.752H14.8107V20.56H24.6187V10.752Z" fill="white"/>
    </mask>
    <g mask="url(#mask0_5821_3674)">
      <path d="M24.6187 15.6587C24.6187 18.368 22.4214 20.5653 19.712 20.5653C17.0027 20.5653 14.8054 18.368 14.8054 15.6587C14.8054 12.9493 17.0027 10.752 19.712 10.752C22.4214 10.752 24.6187 12.9493 24.6187 15.6587Z" fill="#26377F"/>
    </g>
  </g>
  <defs>
    <clipPath id="clip0_5821_3674">
      <rect width="148.8" height="32" fill="white"/>
    </clipPath>
  </defs>
</svg>
